<svg width="24" height="24" viewBox="0 0 24 24" fill="none" xmlns="http://www.w3.org/2000/svg">
<g clip-path="url(#clip0_176_7328)">
<path d="M17.907 0.897217H13.8139L11.6934 6.84114H13.4687L11.9893 12.0915L17.118 4.85986H15.2934L17.907 0.897217Z" fill="#3D40CC"/>
<path d="M24.0317 8.32439L21.1374 5.43018L15.435 8.13371L16.6904 9.38901L11.9316 12.0556L20.6718 10.5684L19.3816 9.27825L24.0317 8.32439Z" fill="#3D40CC"/>
<path d="M15.6843 24.0319L18.5785 21.1376L15.875 15.4353L14.6197 16.6906L11.9531 11.9319L13.4403 20.672L14.7304 19.3818L15.6843 24.0319Z" fill="#3D40CC"/>
<path d="M-0.0234375 15.6837L2.87078 18.578L8.57322 15.8745L7.31784 14.6191L12.0766 11.9526L3.33648 13.4397L4.62666 14.7299L-0.0234375 15.6837Z" fill="#3D40CC"/>
<path d="M0.896484 6.10132V10.1944L6.84041 12.3149V10.5396L12.0908 12.019L4.85912 6.89029V8.71499L0.896484 6.10132Z" fill="#3D40CC"/>
<path d="M8.3239 -0.0234375L5.42969 2.87078L8.13322 8.57322L9.38852 7.31784L12.0551 12.0766L10.5679 3.33648L9.27777 4.62666L8.3239 -0.0234375Z" fill="#3D40CC"/>
<path d="M23.1103 17.907V13.8139L17.1665 11.6934V13.4687L11.916 11.9893L19.1478 17.118V15.2934L23.1103 17.907Z" fill="#3D40CC"/>
<path d="M6.10156 23.1111H10.1947L12.3152 17.1672H10.5399L12.0193 11.9167L6.89061 19.1484H8.71523L6.10156 23.1111Z" fill="#3D40CC"/>
</g>
<defs>
<clipPath id="clip0_176_7328">
<rect width="24" height="24" fill="white"/>
</clipPath>
</defs>
</svg>
