<svg width="186" height="40" viewBox="0 0 186 40" fill="none" xmlns="http://www.w3.org/2000/svg">
<g clip-path="url(#clip0_256_7106)">
<path d="M29.8443 1.49561H23.0225L19.4883 11.4021H22.4472L19.9815 20.1528L28.5293 8.10001H25.4883L29.8443 1.49561Z" fill="#4F46E5"/>
<path d="M40.0535 13.874L35.2296 9.05029L25.7257 13.5562L27.818 15.6484L19.8867 20.0926L34.4536 17.614L32.3033 15.4638L40.0535 13.874Z" fill="#4F46E5"/>
<path d="M26.1405 40.0532L30.9642 35.2294L26.4583 25.7254L24.3661 27.8177L19.9219 19.8865L22.4005 34.4533L24.5507 32.303L26.1405 40.0532Z" fill="#4F46E5"/>
<path d="M-0.0390625 26.1397L4.78463 30.9635L14.2887 26.4576L12.1964 24.3653L20.1277 19.9211L5.56081 22.3996L7.7111 24.5499L-0.0390625 26.1397Z" fill="#4F46E5"/>
<path d="M1.49609 10.1689V16.9907L11.4026 20.5249V17.5661L20.1533 20.0317L8.10049 11.4839V14.5251L1.49609 10.1689Z" fill="#4F46E5"/>
<path d="M13.8745 -0.0393066L9.05078 4.78438L13.5567 14.2885L15.6488 12.1962L20.0931 20.1274L17.6145 5.56056L15.4642 7.71085L13.8745 -0.0393066Z" fill="#4F46E5"/>
<path d="M38.5185 29.845V23.0233L28.6121 19.489V22.448L19.8613 19.9822L31.9143 28.53V25.489L38.5185 29.845Z" fill="#4F46E5"/>
<path d="M10.168 38.5183H16.9898L20.524 28.6118H17.5651L20.0309 19.8611L11.483 31.9139H14.5241L10.168 38.5183Z" fill="#4F46E5"/>
</g>
<path d="M64.8168 15.4929H68.9432C68.8835 11.8636 65.9006 9.35795 61.3665 9.35795C56.902 9.35795 53.6307 11.8239 53.6506 15.5227C53.6406 18.5256 55.7585 20.2457 59.1989 21.071L61.4162 21.6278C63.6335 22.1648 64.8665 22.8011 64.8764 24.1733C64.8665 25.6648 63.4545 26.679 61.267 26.679C59.0298 26.679 57.419 25.6449 57.2798 23.6065H53.1136C53.223 28.0114 56.375 30.2884 61.3168 30.2884C66.2884 30.2884 69.2116 27.9119 69.2216 24.1832C69.2116 20.7926 66.6562 18.9929 63.1165 18.1974L61.2869 17.7599C59.517 17.3523 58.0355 16.696 58.0653 15.2344C58.0653 13.9219 59.2287 12.9574 61.3366 12.9574C63.3949 12.9574 64.6577 13.892 64.8168 15.4929ZM74.5938 21.1705C74.6037 19.2017 75.8069 18.0483 77.537 18.0483C79.2571 18.0483 80.2713 19.152 80.2614 21.0312V30H84.4972V20.2756C84.5071 16.696 82.3992 14.5284 79.2174 14.5284C76.9006 14.5284 75.3495 15.6222 74.6535 17.4219H74.4745V9.63636H70.358V30H74.5938V21.1705ZM93.0512 30.2983C97.6847 30.2983 100.568 27.1264 100.568 22.4233C100.568 17.6903 97.6847 14.5284 93.0512 14.5284C88.4177 14.5284 85.5342 17.6903 85.5342 22.4233C85.5342 27.1264 88.4177 30.2983 93.0512 30.2983ZM93.0711 27.017C90.9333 27.017 89.8396 25.0582 89.8396 22.3935C89.8396 19.7287 90.9333 17.7599 93.0711 17.7599C95.1691 17.7599 96.2629 19.7287 96.2629 22.3935C96.2629 25.0582 95.1691 27.017 93.0711 27.017ZM101.643 35.7273H105.878V27.554H106.008C106.594 28.8267 107.877 30.2486 110.343 30.2486C113.823 30.2486 116.537 27.4943 116.537 22.3835C116.537 17.1335 113.704 14.5284 110.353 14.5284C107.797 14.5284 106.574 16.0497 106.008 17.2926H105.819V14.7273H101.643V35.7273ZM105.789 22.3636C105.789 19.6392 106.942 17.8991 109 17.8991C111.098 17.8991 112.212 19.7188 112.212 22.3636C112.212 25.0284 111.079 26.8778 109 26.8778C106.962 26.8778 105.789 25.0881 105.789 22.3636ZM131.4 14.7273H126.916L123.754 25.6548H123.595L120.423 14.7273H115.949L121.288 30H126.061L131.4 14.7273ZM138.329 30.2983C142.107 30.2983 144.653 28.4588 145.249 25.625L141.332 25.3665C140.904 26.5298 139.81 27.1364 138.398 27.1364C136.28 27.1364 134.938 25.7344 134.938 23.4574V23.4474H145.339V22.2841C145.339 17.0938 142.197 14.5284 138.16 14.5284C133.665 14.5284 130.752 17.7202 130.752 22.4332C130.752 27.2756 133.626 30.2983 138.329 30.2983ZM134.938 20.8224C135.028 19.0824 136.35 17.6903 138.229 17.6903C140.069 17.6903 141.341 19.0028 141.351 20.8224H134.938ZM146.423 30H150.659V21.3594C150.659 19.4801 152.031 18.1875 153.9 18.1875C154.487 18.1875 155.292 18.2869 155.69 18.4162V14.6577C155.312 14.5682 154.785 14.5085 154.357 14.5085C152.647 14.5085 151.245 15.5028 150.688 17.392H150.529V14.7273H146.423V30ZM168.907 19.0824C168.529 16.2685 166.262 14.5284 162.404 14.5284C158.497 14.5284 155.921 16.3381 155.931 19.2812C155.921 21.5682 157.363 23.0497 160.346 23.6463L162.991 24.1733C164.323 24.4418 164.93 24.929 164.95 25.6946C164.93 26.5994 163.946 27.2457 162.464 27.2457C160.953 27.2457 159.948 26.5994 159.69 25.3565L155.524 25.5753C155.921 28.4986 158.407 30.2983 162.454 30.2983C166.412 30.2983 169.245 28.2798 169.255 25.267C169.245 23.0597 167.804 21.7372 164.84 21.1307L162.076 20.5739C160.654 20.2656 160.127 19.7784 160.137 19.0426C160.127 18.1278 161.162 17.5312 162.474 17.5312C163.946 17.5312 164.821 18.3366 165.029 19.321L168.907 19.0824ZM177.203 30.2983C180.981 30.2983 183.527 28.4588 184.123 25.625L180.206 25.3665C179.778 26.5298 178.684 27.1364 177.272 27.1364C175.154 27.1364 173.812 25.7344 173.812 23.4574V23.4474H184.213V22.2841C184.213 17.0938 181.071 14.5284 177.034 14.5284C172.539 14.5284 169.626 17.7202 169.626 22.4332C169.626 27.2756 172.5 30.2983 177.203 30.2983ZM173.812 20.8224C173.902 19.0824 175.224 17.6903 177.103 17.6903C178.943 17.6903 180.216 19.0028 180.225 20.8224H173.812Z" fill="#4F46E5"/>
<defs>
<clipPath id="clip0_256_7106">
<rect width="40" height="40" fill="white"/>
</clipPath>
</defs>
</svg>
