<svg width="32" height="20" viewBox="0 0 32 20" fill="none" xmlns="http://www.w3.org/2000/svg">
<path d="M20.3269 2.13867H11.6738V17.8628H20.3269V2.13867Z" fill="#fafafa"/>
<path fill-rule="evenodd" clip-rule="evenodd" d="M12.2229 10C12.2229 6.81028 13.6999 3.96917 16 2.13806C14.3177 0.799167 12.1954 0 9.88844 0C4.42709 0 0 4.47722 0 10C0 15.5231 4.42709 20 9.88844 20C12.1954 20 14.3177 19.2011 16 17.8622C13.6999 16.0311 12.2229 13.19 12.2229 10Z" fill="#fafafa"/>
<path fill-rule="evenodd" clip-rule="evenodd" d="M31.6912 16.1967V15.8086H31.5912L31.4759 16.0756L31.3602 15.8086H31.2602V16.1967H31.3311V15.9039L31.4391 16.1564H31.5124L31.6206 15.9033V16.1967H31.6912ZM31.0567 16.1967V15.8747H31.185V15.8092H30.8581V15.8747H30.9864V16.1967H31.0567ZM32 10C32 15.5231 27.5729 20 22.1116 20C19.8046 20 17.682 19.2011 16 17.8622C18.3001 16.0311 19.7771 13.19 19.7771 10C19.7771 6.81028 18.3001 3.96917 16 2.13806C17.682 0.799167 19.8046 0 22.1116 0C27.5729 0 32 4.47722 32 10Z" fill="#fafafa"/>
</svg>
