<svg width="56" height="14" viewBox="0 0 56 14" fill="none" xmlns="http://www.w3.org/2000/svg">
<path fill-rule="evenodd" clip-rule="evenodd" d="M20.9392 3.27026H17.8403C17.6282 3.27026 17.4479 3.42234 17.4148 3.62899L16.1615 11.4731C16.1365 11.6279 16.258 11.7674 16.417 11.7674H17.8965C18.1085 11.7674 18.2889 11.6154 18.322 11.4083L18.66 9.29258C18.6926 9.08548 18.8734 8.93341 19.085 8.93341H20.066C22.1074 8.93341 23.2855 7.95831 23.5932 6.02602C23.7318 5.18064 23.599 4.51641 23.198 4.05123C22.7576 3.54043 21.9764 3.27026 20.9392 3.27026ZM21.2967 6.13516C21.1273 7.23281 20.2776 7.23281 19.4561 7.23281H18.9885L19.3166 5.18288C19.336 5.05898 19.4448 4.96773 19.5717 4.96773H19.786C20.3456 4.96773 20.8735 4.96773 21.1463 5.28262C21.309 5.47048 21.3588 5.74959 21.2967 6.13516Z" fill="#08081A"/>
<path fill-rule="evenodd" clip-rule="evenodd" d="M30.2025 6.09968H28.7185C28.5921 6.09968 28.4829 6.19093 28.4634 6.31483L28.3977 6.72454L28.2939 6.57604C27.9727 6.11578 27.2563 5.96191 26.5412 5.96191C24.9014 5.96191 23.5008 7.18794 23.228 8.90777C23.0862 9.76567 23.2878 10.586 23.7808 11.1581C24.233 11.6841 24.8801 11.9033 25.6499 11.9033C26.9713 11.9033 27.704 11.0646 27.704 11.0646L27.6378 11.4716C27.6129 11.6273 27.7343 11.7668 27.8925 11.7668H29.2292C29.4417 11.7668 29.6211 11.6148 29.6547 11.4077L30.4567 6.394C30.4821 6.23968 30.3611 6.09968 30.2025 6.09968ZM28.134 8.95071C27.9908 9.78759 27.3179 10.3494 26.4597 10.3494C26.0288 10.3494 25.6844 10.213 25.4633 9.95443C25.2439 9.69768 25.1606 9.33225 25.2303 8.92521C25.364 8.09549 26.0482 7.51535 26.8933 7.51535C27.3147 7.51535 27.6573 7.65357 27.8829 7.91434C28.109 8.17779 28.1988 8.54546 28.134 8.95071Z" fill="#08081A"/>
<path fill-rule="evenodd" clip-rule="evenodd" d="M38.1055 6.09912H36.6142C36.472 6.09912 36.3383 6.1689 36.2576 6.28564L34.2009 9.27622L33.3291 6.40238C33.2742 6.22257 33.1061 6.09912 32.9158 6.09912H31.4504C31.2723 6.09912 31.1486 6.27088 31.2053 6.43638L32.8479 11.1947L31.3036 13.3466C31.1822 13.5161 31.3045 13.7491 31.5143 13.7491H33.0037C33.1451 13.7491 33.2774 13.6811 33.3576 13.5666L38.3175 6.49945C38.4362 6.33037 38.3144 6.09912 38.1055 6.09912Z" fill="#08081A"/>
<path fill-rule="evenodd" clip-rule="evenodd" d="M43.0427 3.27026H39.9433C39.7317 3.27026 39.5514 3.42234 39.5183 3.62899L38.265 11.4731C38.2401 11.6279 38.3615 11.7674 38.5196 11.7674H40.1101C40.2578 11.7674 40.3842 11.661 40.4073 11.5161L40.763 9.29258C40.7957 9.08548 40.9765 8.93341 41.1881 8.93341H42.1686C44.2104 8.93341 45.3881 7.95831 45.6962 6.02602C45.8353 5.18064 45.7017 4.51641 45.3006 4.05123C44.8607 3.54043 44.0799 3.27026 43.0427 3.27026ZM43.4002 6.13516C43.2312 7.23281 42.3816 7.23281 41.5596 7.23281H41.0925L41.421 5.18288C41.4405 5.05898 41.5483 4.96773 41.6756 4.96773H41.89C42.4491 4.96773 42.9775 4.96773 43.2502 5.28262C43.4129 5.47048 43.4623 5.74959 43.4002 6.13516Z" fill="#08081A"/>
<path fill-rule="evenodd" clip-rule="evenodd" d="M52.306 6.09968H50.8229C50.6956 6.09968 50.5873 6.19093 50.5683 6.31483L50.5026 6.72454L50.3984 6.57604C50.0771 6.11578 49.3612 5.96191 48.6461 5.96191C47.0063 5.96191 45.6061 7.18794 45.3333 8.90777C45.192 9.76567 45.3927 10.586 45.8857 11.1581C46.3388 11.6841 46.985 11.9033 47.7548 11.9033C49.0761 11.9033 49.8088 11.0646 49.8088 11.0646L49.7427 11.4716C49.7178 11.6273 49.8392 11.7668 49.9982 11.7668H51.3345C51.5461 11.7668 51.7265 11.6148 51.7595 11.4077L52.562 6.394C52.5865 6.23968 52.4651 6.09968 52.306 6.09968ZM50.2375 8.95071C50.0952 9.78759 49.4214 10.3494 48.5632 10.3494C48.1332 10.3494 47.7879 10.213 47.5668 9.95443C47.3475 9.69768 47.265 9.33225 47.3339 8.92521C47.4685 8.09549 48.1518 7.51535 48.9968 7.51535C49.4182 7.51535 49.7608 7.65357 49.9865 7.91434C50.2135 8.17779 50.3032 8.54546 50.2375 8.95071Z" fill="#08081A"/>
<path fill-rule="evenodd" clip-rule="evenodd" d="M54.0564 3.48513L52.7845 11.4728C52.7596 11.6276 52.881 11.7672 53.0392 11.7672H54.3179C54.5304 11.7672 54.7107 11.6151 54.7434 11.408L55.9976 3.5643C56.0225 3.40953 55.9011 3.26953 55.743 3.26953H54.3111C54.1847 3.26998 54.0759 3.36123 54.0564 3.48513Z" fill="#08081A"/>
<path fill-rule="evenodd" clip-rule="evenodd" d="M3.29211 13.2917L3.52909 11.8058L3.0012 11.7938H0.480469L2.23225 0.829346C2.23769 0.796247 2.25536 0.765384 2.28119 0.743467C2.30701 0.72155 2.34009 0.709473 2.37453 0.709473H6.62484C8.03587 0.709473 9.00963 0.999317 9.51804 1.5714C9.75638 1.83978 9.90818 2.12023 9.98159 2.42886C10.0586 2.75269 10.06 3.1396 9.98476 3.61149L9.97932 3.64593V3.9483L10.2177 4.08159C10.4184 4.18671 10.5779 4.30703 10.7002 4.44479C10.9041 4.67425 11.036 4.96589 11.0917 5.31164C11.1493 5.66724 11.1303 6.09037 11.036 6.56942C10.9273 7.12048 10.7514 7.60043 10.514 7.99315C10.2956 8.35501 10.0174 8.65514 9.68706 8.88773C9.37168 9.10869 8.99695 9.27642 8.57328 9.38377C8.16274 9.48933 7.69467 9.54256 7.18128 9.54256H6.8505C6.61396 9.54256 6.38423 9.62665 6.20389 9.77739C6.02309 9.93126 5.90346 10.1415 5.86676 10.3714L5.84184 10.5051L5.42315 13.124L5.40412 13.2202C5.39914 13.2506 5.39053 13.2658 5.37784 13.2761C5.36651 13.2855 5.3502 13.2917 5.33434 13.2917H3.29211Z" fill="#08081A"/>
<path fill-rule="evenodd" clip-rule="evenodd" d="M10.4442 3.68042C10.4315 3.76048 10.417 3.84234 10.4007 3.92643C9.8402 6.76717 7.92258 7.74852 5.47344 7.74852H4.22644C3.92693 7.74852 3.67454 7.96322 3.62786 8.25486L2.98941 12.2518L2.80861 13.3848C2.77826 13.5763 2.92779 13.7489 3.12354 13.7489H5.33524C5.59714 13.7489 5.81963 13.5611 5.86086 13.3061L5.88261 13.1952L6.29903 10.5866L6.32577 10.4434C6.36655 10.1876 6.58949 9.99974 6.85139 9.99974H7.18217C9.325 9.99974 11.0025 9.14094 11.4928 6.65579C11.6976 5.61763 11.5915 4.75079 11.0496 4.14113C10.8856 3.95729 10.6821 3.80477 10.4442 3.68042Z" fill="#08081A"/>
<path fill-rule="evenodd" clip-rule="evenodd" d="M9.85697 3.44933C9.77133 3.42473 9.68297 3.40236 9.59234 3.38224C9.50126 3.36255 9.40792 3.34511 9.31186 3.3299C8.97564 3.27623 8.60725 3.25073 8.21258 3.25073H4.8812C4.79919 3.25073 4.72125 3.26907 4.65147 3.30217C4.49786 3.37508 4.38367 3.51866 4.35603 3.69444L3.64734 8.1253L3.62695 8.25457C3.67362 7.96293 3.92602 7.74823 4.22553 7.74823H5.47253C7.92167 7.74823 9.83929 6.76643 10.3998 3.92614C10.4166 3.84205 10.4306 3.7602 10.4433 3.68013C10.3015 3.60588 10.1479 3.54237 9.98248 3.48824C9.9417 3.47482 9.89956 3.46185 9.85697 3.44933Z" fill="#08081A"/>
<path fill-rule="evenodd" clip-rule="evenodd" d="M4.35634 3.69466C4.38398 3.51888 4.49817 3.3753 4.65177 3.30284C4.72201 3.26974 4.79949 3.2514 4.88151 3.2514H8.21288C8.60755 3.2514 8.97594 3.27689 9.31216 3.33057C9.40823 3.34578 9.50157 3.36322 9.59265 3.3829C9.68327 3.40303 9.77163 3.42539 9.85727 3.45C9.89987 3.46252 9.94201 3.47549 9.98324 3.48846C10.1486 3.54258 10.3022 3.60655 10.4441 3.68035C10.6108 2.63056 10.4427 1.91579 9.86769 1.26856C9.23377 0.556028 8.08963 0.250977 6.62559 0.250977H2.37528C2.07621 0.250977 1.8211 0.465676 1.77488 0.757756L0.00452618 11.8349C-0.0303644 12.0541 0.140917 12.2518 0.36476 12.2518H2.98881L3.64765 8.12552L4.35634 3.69466Z" fill="#08081A"/>
</svg>
