<svg width="32" height="12" viewBox="0 0 32 12" fill="none" xmlns="http://www.w3.org/2000/svg">
<path fill-rule="evenodd" clip-rule="evenodd" d="M15.8443 0.974598L13.7061 11.052H11.12L13.259 0.974598H15.8443ZM26.7231 7.48147L28.0843 3.69764L28.8679 7.48147H26.7231ZM29.6084 11.052H32L29.9124 0.974598H27.7055C27.209 0.974598 26.7905 1.26541 26.6047 1.71365L22.7249 11.052H25.4394L25.9788 9.54657H29.296L29.6084 11.052ZM22.8593 7.76168C22.8708 5.10226 19.2114 4.95529 19.2367 3.7671C19.2446 3.40579 19.5861 3.02163 20.3335 2.92319C20.7034 2.8745 21.7252 2.83671 22.8827 3.37382L23.337 1.23718C22.7144 1.00925 21.9142 0.790283 20.9178 0.790283C18.3622 0.790283 16.5631 2.16025 16.5487 4.12139C16.5317 5.57275 17.8326 6.38156 18.8127 6.86415C19.8197 7.35795 20.1575 7.6749 20.1538 8.11642C20.1462 8.79288 19.3502 9.09101 18.6061 9.10281C17.3061 9.12313 16.5516 8.74852 15.9504 8.46607L15.4822 10.6744C16.0858 10.9539 17.201 11.1976 18.3576 11.2096C21.0742 11.2096 22.8508 9.85725 22.8593 7.76168ZM12.1493 0.974598L7.96 11.052H5.22682L3.16504 3.00953C3.03985 2.51439 2.93141 2.33261 2.55081 2.1244C1.92919 1.784 0.902815 1.46496 0 1.2669L0.0608889 0.974598H4.46089C5.02148 0.974598 5.52593 1.35055 5.65333 2.00192L6.74222 7.83367L9.43333 0.974598H12.1493Z" fill="#ffffff"/>
</svg>
